<svg id="svg" xmlns="http://www.w3.org/2000/svg" xmlns:xlink="http://www.w3.org/1999/xlink" width="400" height="205.98802395209583" viewBox="0, 0, 400,205.98802395209583"><g id="svgg"><path id="path0" d="M0.221 16.052 C 3.574 139.542,118.007 227.285,242.715 201.988 C 332.990 183.675,396.004 107.997,399.722 13.424 L 400.250 0.000 395.135 0.016 C 354.297 0.148,316.250 10.758,285.602 30.563 L 277.790 35.611 271.596 29.582 C 231.610 -9.336,166.636 -9.213,127.829 29.855 L 121.959 35.764 115.394 31.485 C 85.534 12.021,52.755 2.062,12.863 0.335 L -0.221 -0.232 0.221 16.052 M31.936 21.125 C 113.292 32.124,177.692 98.388,185.023 178.643 L 185.698 186.028 182.470 186.013 C 139.231 185.817,83.862 155.241,53.995 115.065 C 34.391 88.696,19.162 47.620,19.162 21.117 C 19.162 19.664,21.144 19.666,31.936 21.125 M211.577 21.121 C 228.794 23.736,243.665 30.918,256.046 42.598 L 261.598 47.835 251.136 58.448 C 227.848 82.074,211.990 108.585,202.522 139.721 C 200.986 144.770,199.570 148.363,199.374 147.705 C 187.768 108.556,173.582 83.917,147.499 57.605 L 137.725 47.745 142.914 42.914 C 161.781 25.353,186.914 17.376,211.577 21.121 M380.040 22.177 C 380.040 23.396,379.662 27.438,379.201 31.159 C 369.418 110.004,307.745 173.093,229.039 184.769 C 212.547 187.216,213.217 187.683,214.811 174.829 C 224.407 97.487,285.024 34.415,361.677 22.015 C 378.373 19.314,380.040 19.329,380.040 22.177 " stroke="none" fill="#000000" fill-rule="evenodd"></path></g></svg>