<svg id="svg" xmlns="http://www.w3.org/2000/svg" xmlns:xlink="http://www.w3.org/1999/xlink" width="400" height="209.28792569659444" viewBox="0, 0, 400,209.28792569659444"><g id="svgg"><path id="path0" d="M0.011 7.740 C 0.139 101.573,58.887 180.153,145.997 203.007 C 274.855 236.815,400.000 144.971,400.000 16.595 L 400.000 0.000 390.308 -0.000 C 352.027 -0.000,314.515 10.523,283.279 30.024 L 277.394 33.698 269.936 26.794 C 231.189 -9.079,170.635 -8.419,128.802 28.331 L 123.239 33.219 118.276 30.170 C 86.302 10.528,49.129 0.097,10.836 0.021 L 0.000 0.000 0.011 7.740 M54.929 32.331 C 121.759 49.252,181.743 118.068,182.024 178.140 L 182.043 182.287 174.303 181.409 C 100.829 173.075,28.483 98.777,28.483 31.654 L 28.483 27.668 36.842 28.768 C 41.440 29.373,49.579 30.976,54.929 32.331 M224.142 31.651 C 233.304 34.545,249.968 44.215,253.845 48.887 C 255.166 50.478,253.713 52.541,244.422 62.268 C 227.433 80.052,208.382 110.663,202.887 129.003 C 200.994 135.320,200.492 135.063,197.024 126.006 C 187.430 100.947,173.805 79.804,154.374 59.822 C 144.299 49.461,144.155 50.215,157.974 40.973 C 177.979 27.592,201.020 24.347,224.142 31.651 M372.755 31.075 C 372.755 37.562,367.987 58.720,363.937 70.202 C 343.746 127.448,293.512 169.714,233.135 180.257 C 217.882 182.920,218.342 183.275,220.221 170.274 C 231.024 95.558,291.750 38.318,371.827 27.372 C 372.337 27.302,372.755 28.968,372.755 31.075 " stroke="none" fill="#344767" fill-rule="evenodd"></path></g></svg>